<svg xmlns="http://www.w3.org/2000/svg" viewBox="0 0 780 560" font-family="Segoe UI, Arial, sans-serif"><defs><marker id="arrow" viewBox="0 0 10 10" refX="8" refY="5" markerWidth="7" markerHeight="7" orient="auto-start-reverse"><path d="M0,0 L10,5 L0,10 z" fill="#0a1628"/></marker><marker id="arrowc" viewBox="0 0 10 10" refX="8" refY="5" markerWidth="7" markerHeight="7" orient="auto-start-reverse"><path d="M0,0 L10,5 L0,10 z" fill="#0891b2"/></marker><marker id="arrowg" viewBox="0 0 10 10" refX="8" refY="5" markerWidth="7" markerHeight="7" orient="auto-start-reverse"><path d="M0,0 L10,5 L0,10 z" fill="#64748b"/></marker></defs><text x="390" y="30" font-size="14" font-weight="900" font-style="normal" fill="#0a1628" text-anchor="middle" font-family="Segoe UI, Arial, sans-serif">INTENDED MULTI-DEVICE CAPTURE ARCHITECTURE</text><rect x="280" y="42" width="279.94" height="18" rx="9.0" ry="9.0" fill="#ffedd5" stroke="#ea580c" stroke-width="1.6"/><circle cx="295" cy="51.0" r="3.2" fill="#ea580c" stroke="none" stroke-width="2"/><text x="305" y="55.0" font-size="9" font-weight="800" font-style="normal" fill="#ea580c" text-anchor="start" font-family="Segoe UI, Arial, sans-serif">SOFTWARE IMPLEMENTATION PENDING</text><rect x="40" y="90" width="180" height="44" rx="10" ry="10" fill="#ffffff" stroke="#0a1628" stroke-width="2.2"/><text x="130.0" y="117.0" font-size="12" font-weight="800" font-style="normal" fill="#0a1628" text-anchor="middle" font-family="Segoe UI, Arial, sans-serif">IoT Device A</text><line x1="220" y1="112" x2="340" y2="112" stroke="#64748b" stroke-width="2.4" stroke-linecap="round" marker-end="url(#arrow)"/><rect x="40" y="150" width="180" height="44" rx="10" ry="10" fill="#ffffff" stroke="#0a1628" stroke-width="2.2"/><text x="130.0" y="177.0" font-size="12" font-weight="800" font-style="normal" fill="#0a1628" text-anchor="middle" font-family="Segoe UI, Arial, sans-serif">IoT Device B</text><line x1="220" y1="172" x2="340" y2="172" stroke="#64748b" stroke-width="2.4" stroke-linecap="round" marker-end="url(#arrow)"/><rect x="40" y="210" width="180" height="44" rx="10" ry="10" fill="#ffffff" stroke="#0a1628" stroke-width="2.2"/><text x="130.0" y="237.0" font-size="12" font-weight="800" font-style="normal" fill="#0a1628" text-anchor="middle" font-family="Segoe UI, Arial, sans-serif">IoT Device C</text><line x1="220" y1="232" x2="340" y2="232" stroke="#64748b" stroke-width="2.4" stroke-linecap="round" marker-end="url(#arrow)"/><rect x="340" y="80" width="40" height="200" rx="6" ry="6" fill="none" stroke="#64748b" stroke-width="2"/><text x="360" y="300" font-size="9.5" font-weight="600" font-style="normal" fill="#64748b" text-anchor="middle" font-family="Segoe UI, Arial, sans-serif">traffic in air</text><line x1="380" y1="180" x2="440" y2="180" stroke="#0a1628" stroke-width="3.5" stroke-linecap="round" marker-end="url(#arrow)"/><rect x="440" y="130" width="200" height="100" rx="10" ry="10" fill="#ffffff" stroke="#0a1628" stroke-width="2.2"/><text x="540.0" y="174.0" font-size="12" font-weight="800" font-style="normal" fill="#0a1628" text-anchor="middle" font-family="Segoe UI, Arial, sans-serif">External USB Wi-Fi Adapter</text><text x="540.0" y="194.0" font-size="9.5" font-weight="500" font-style="normal" fill="#64748b" text-anchor="middle" font-family="Segoe UI, Arial, sans-serif">monitor mode (exactly one)</text><line x1="540" y1="230" x2="540" y2="280" stroke="#0a1628" stroke-width="3.5" stroke-linecap="round" marker-end="url(#arrow)"/><rect x="440" y="284" width="200" height="70" rx="10" ry="10" fill="#ffffff" stroke="#0a1628" stroke-width="2.2"/><text x="540.0" y="313.0" font-size="12.5" font-weight="800" font-style="normal" fill="#0a1628" text-anchor="middle" font-family="Segoe UI, Arial, sans-serif">CIPHER Pipeline</text><text x="540.0" y="333.0" font-size="9.5" font-weight="500" font-style="normal" fill="#64748b" text-anchor="middle" font-family="Segoe UI, Arial, sans-serif">existing, unmodified</text><rect x="445" y="277" width="154.55200000000002" height="15" rx="7.5" ry="7.5" fill="#dcfce7" stroke="#16a34a" stroke-width="1.6"/><circle cx="460" cy="284.5" r="3.2" fill="#16a34a" stroke="none" stroke-width="2"/><text x="470" y="288.5" font-size="7.4" font-weight="800" font-style="normal" fill="#16a34a" text-anchor="start" font-family="Segoe UI, Arial, sans-serif">IMPLEMENTED (CORE)</text><line x1="540" y1="362" x2="540" y2="396" stroke="#0a1628" stroke-width="3.5" stroke-linecap="round" marker-end="url(#arrow)"/><rect x="410" y="400" width="260" height="58" rx="10" ry="10" fill="#ffffff" stroke="#0a1628" stroke-width="2.2"/><text x="540.0" y="423.0" font-size="12" font-weight="800" font-style="normal" fill="#0a1628" text-anchor="middle" font-family="Segoe UI, Arial, sans-serif">Per-Device DeviceAssessment</text><text x="540.0" y="443.0" font-size="9.5" font-weight="500" font-style="normal" fill="#64748b" text-anchor="middle" font-family="Segoe UI, Arial, sans-serif">identity preserved per src IP</text><rect x="40" y="490" width="700" height="48" rx="8" ry="8" fill="#ffedd5" stroke="#ea580c" stroke-width="2"/><text x="390" y="518" font-size="10.3" font-weight="700" font-style="normal" fill="#7c2d12" text-anchor="middle" font-family="Segoe UI, Arial, sans-serif">Must NOT reuse Windows host-live normalization — real device identities are preserved here</text></svg>